<svg width="32" height="32" viewBox="0 0 32 32" fill="none" xmlns="http://www.w3.org/2000/svg">
<path d="M12.0889 30.5777C11.7117 30.5777 11.3499 30.4279 11.0832 30.1612C10.8165 29.8945 10.6666 29.5327 10.6666 29.1555V24.8889H4.97775C4.22335 24.8889 3.49986 24.5892 2.96642 24.0557C2.43298 23.5223 2.1333 22.7988 2.1333 22.0444V4.97775C2.1333 4.22335 2.43298 3.49986 2.96642 2.96642C3.49986 2.43298 4.22335 2.1333 4.97775 2.1333H27.7333C28.4877 2.1333 29.2112 2.43298 29.7446 2.96642C30.2781 3.49986 30.5777 4.22335 30.5777 4.97775V22.0444C30.5777 22.7988 30.2781 23.5223 29.7446 24.0557C29.2112 24.5892 28.4877 24.8889 27.7333 24.8889H19.0577L13.7955 30.1653C13.5111 30.4355 13.1555 30.5777 12.8 30.5777H12.0889ZM13.5111 22.0444V26.4249L17.8915 22.0444H27.7333V4.97775H4.97775V22.0444H13.5111ZM17.7777 13.5111H14.9333V7.82219H17.7777V13.5111ZM17.7777 19.2H14.9333V16.3555H17.7777V19.2Z" fill="#EBCF83"/>
<circle cx="24" cy="8" r="8" fill="#FF5F5F"/>
<path d="M21.2236 11V5.5376H21.1533L19.5405 6.70654V5.87158L21.228 4.65869H22.0146V11H21.2236ZM26.1499 11.145C25.6724 11.145 25.2563 11.022 24.9019 10.7759C24.5474 10.5269 24.2705 10.1694 24.0713 9.70361C23.8662 9.22314 23.7637 8.63428 23.7637 7.93701C23.7637 6.84717 23.9761 6.00342 24.4009 5.40576C24.8257 4.80811 25.4263 4.50928 26.2026 4.50928C26.7417 4.50928 27.1973 4.65869 27.5693 4.95752C27.9443 5.25342 28.1816 5.65625 28.2812 6.16602H27.4683C27.3833 5.87012 27.2266 5.63721 26.998 5.46729C26.7725 5.29736 26.5044 5.2124 26.1938 5.2124C25.6782 5.2124 25.2769 5.43506 24.9897 5.88037C24.7056 6.32568 24.5532 6.97021 24.5327 7.81396H24.603C24.7583 7.50635 24.9839 7.26758 25.2798 7.09766C25.5757 6.9248 25.9126 6.83838 26.2905 6.83838C26.894 6.83838 27.3921 7.03906 27.7847 7.44043C28.1772 7.83887 28.3735 8.3457 28.3735 8.96094C28.3735 9.59961 28.1655 10.124 27.7495 10.5342C27.3335 10.9414 26.8003 11.145 26.1499 11.145ZM25.1172 10.0244C25.3926 10.3086 25.7339 10.4507 26.1411 10.4507C26.5483 10.4507 26.8882 10.3115 27.1606 10.0332C27.436 9.75195 27.5737 9.40332 27.5737 8.9873C27.5737 8.55371 27.4404 8.20215 27.1738 7.93262C26.9102 7.66016 26.5688 7.52393 26.1499 7.52393C25.731 7.52393 25.3853 7.65869 25.1128 7.92822C24.8433 8.19775 24.7085 8.54199 24.7085 8.96094C24.7085 9.38574 24.8447 9.74023 25.1172 10.0244Z" fill="white"/>
</svg>
