<svg width="28" height="28" viewBox="0 0 28 28" fill="none" xmlns="http://www.w3.org/2000/svg">
<path d="M14.0001 0.666626C6.64008 0.666626 0.666748 6.63996 0.666748 14C0.666748 21.36 6.64008 27.3333 14.0001 27.3333C21.3601 27.3333 27.3334 21.36 27.3334 14C27.3334 6.63996 21.3601 0.666626 14.0001 0.666626ZM14.0001 24.6666C8.12008 24.6666 3.33341 19.88 3.33341 14C3.33341 8.11996 8.12008 3.33329 14.0001 3.33329C19.8801 3.33329 24.6667 8.11996 24.6667 14C24.6667 19.88 19.8801 24.6666 14.0001 24.6666ZM6.66675 21.3333L16.6801 16.68L21.3334 6.66663L11.3201 11.32L6.66675 21.3333ZM14.0001 12.5333C14.8134 12.5333 15.4667 13.1866 15.4667 14C15.4667 14.8133 14.8134 15.4666 14.0001 15.4666C13.1867 15.4666 12.5334 14.8133 12.5334 14C12.5334 13.1866 13.1867 12.5333 14.0001 12.5333Z" fill="#EBCF83"/>
</svg>
