<svg width="28" height="30" viewBox="0 0 28 30" fill="none" xmlns="http://www.w3.org/2000/svg">
<path d="M27.3541 12.5282L14.9424 1.10938C14.5389 0.738162 14.0075 0.537264 13.4594 0.548679C12.9112 0.560093 12.3887 0.782936 12.001 1.17063L0.585813 12.5859L0 13.1716V30.0001H11V19.5001H17V30.0001H28V13.1224L27.3541 12.5282ZM13.5024 2.54825C13.52 2.54825 13.5091 2.55207 13.5016 2.5595C13.4937 2.55207 13.4847 2.54825 13.5024 2.54825ZM26 28.0001H19V19.5001C19 18.9696 18.7893 18.4609 18.4142 18.0859C18.0391 17.7108 17.5304 17.5001 17 17.5001H11C10.4696 17.5001 9.96086 17.7108 9.58579 18.0859C9.21071 18.4609 9 18.9696 9 19.5001V28.0001H2V14.0001L13.5024 2.58482C13.5032 2.58407 13.5033 2.58338 13.5039 2.58263L26 14.0001V28.0001Z" fill="#EBCF83"/>
</svg>
