<svg width="32" height="32" viewBox="0 0 32 32" fill="none" xmlns="http://www.w3.org/2000/svg">
<path d="M24 16C23.2667 16 22.6667 16.6 22.6667 17.3333V24.2933C22.6667 25.0266 22.0667 25.6266 21.3333 25.6266H8C7.26667 25.6266 6.66667 25.0266 6.66667 24.2933V10.6666C6.66667 9.93329 7.26667 9.33329 8 9.33329H14.6667C15.4 9.33329 16 8.73329 16 7.99996C16 7.26663 15.4 6.66663 14.6667 6.66663H6.66667C5.2 6.66663 4 7.86663 4 9.33329V25.3333C4 26.8 5.2 28 6.66667 28H22.6667C24.1333 28 25.3333 26.8 25.3333 25.3333V17.3333C25.3333 16.6 24.7333 16 24 16ZM28.0267 6.66663H25.3333V3.97329C25.3333 3.25329 24.7467 2.66663 24.0267 2.66663H23.9867C23.2533 2.66663 22.6667 3.25329 22.6667 3.97329V6.66663H19.9867C19.2667 6.66663 18.68 7.25329 18.6667 7.97329V8.01329C18.6667 8.74663 19.2533 9.33329 19.9867 9.33329H22.6667V12.0133C22.6667 12.7333 23.2533 13.3333 23.9867 13.32H24.0267C24.7467 13.32 25.3333 12.7333 25.3333 12.0133V9.33329H28.0267C28.7467 9.33329 29.3333 8.74663 29.3333 8.02663V7.97329C29.3333 7.25329 28.7467 6.66663 28.0267 6.66663Z" fill="#EBCF83"/>
<path d="M18.6666 12H10.6666C9.93325 12 9.33325 12.6 9.33325 13.3333C9.33325 14.0667 9.93325 14.6667 10.6666 14.6667H18.6666C19.3999 14.6667 19.9999 14.0667 19.9999 13.3333C19.9999 12.6 19.3999 12 18.6666 12ZM18.6666 16H10.6666C9.93325 16 9.33325 16.6 9.33325 17.3333C9.33325 18.0667 9.93325 18.6667 10.6666 18.6667H18.6666C19.3999 18.6667 19.9999 18.0667 19.9999 17.3333C19.9999 16.6 19.3999 16 18.6666 16ZM18.6666 20H10.6666C9.93325 20 9.33325 20.6 9.33325 21.3333C9.33325 22.0667 9.93325 22.6667 10.6666 22.6667H18.6666C19.3999 22.6667 19.9999 22.0667 19.9999 21.3333C19.9999 20.6 19.3999 20 18.6666 20Z" fill="#EBCF83"/>
</svg>
